<svg class="badge__icon" version="1.1" xmlns="http://www.w3.org/2000/svg" xmlns:xlink="http://www.w3.org/1999/xlink" preserveAspectRatio="xMidYMid" viewBox="-410 288.3 20 20">
    <path d="M-392.5,305.3c-0.1,0.1-0.2,0.1-0.4,0.2c-0.2,0-0.4-0.2-0.3-0.4c0.1-0.4,0.3-0.7,0.4-1.1c0.1-0.2,0.1-0.4,0.1-0.6
    c0-0.1,0-0.2-0.2-0.2c-0.4,0-0.7,0-1.1,0c-0.2,0-0.5,0.1-0.7,0.1c-0.2,0-0.3,0-0.4-0.2c-0.1-0.2,0-0.3,0.1-0.4
    c0.2-0.2,0.5-0.3,0.8-0.4c0.4-0.2,0.9-0.2,1.4-0.2c0.3,0,0.6,0.1,0.9,0.1c0.3,0.1,0.5,0.2,0.5,0.6
    C-391.4,303.6-391.7,304.5-392.5,305.3z M-396.8,301.9c-0.2,0.2-0.5,0.2-0.7,0c-0.4-0.3-0.7-0.7-0.9-1.1c-0.1-0.1-0.1-0.2-0.2-0.3
    c-0.2,0.2-0.4,0.3-0.5,0.5c-0.8,0.8-1.8,1.1-2.9,1.1c-0.5,0-1,0-1.5-0.2c-0.9-0.4-1.5-1-1.7-2c-0.2-0.8-0.2-1.7,0-2.5
    c0.3-1,1-1.7,1.9-2.1c0.7-0.4,1.5-0.6,2.3-0.7c0.6-0.1,1.3-0.1,1.9-0.2c0.1,0,0.2,0,0.1-0.1c0-0.4,0-0.8-0.1-1.2
    c-0.1-0.7-0.5-1.1-1.1-1.2c-0.7-0.1-1.3,0.1-1.8,0.6c-0.2,0.2-0.3,0.4-0.3,0.7c-0.1,0.4-0.2,0.5-0.6,0.4c-0.6-0.1-1.2-0.2-1.8-0.2
    c-0.3,0-0.4-0.2-0.4-0.5c0.3-1.5,1.2-2.5,2.6-3c1.2-0.5,3.1-0.3,3.4-0.3c0.7,0.1,1.4,0.4,2,0.8c0.7,0.5,1.1,1.2,1.1,2.1
    c0,0.5,0,1,0,1.5c0,1.2,0,2.4,0,3.6c0,0.8,0.2,1.4,0.7,2c0.1,0.1,0.1,0.2,0.2,0.3c0.1,0.2,0.1,0.4-0.1,0.5
    C-395.7,301-396.3,301.5-396.8,301.9z M-399.3,296.1c-0.4,0-0.8,0-1.2,0.1c-1.4,0.2-2.1,1.2-1.9,2.6c0.1,0.9,0.9,1.4,1.8,1.1
    c0.6-0.2,1-0.7,1.3-1.3c0.2-0.6,0.2-1.1,0.2-1.7c0-0.2,0-0.3,0-0.5C-399,296.2-399.1,296.1-399.3,296.1z M-399.4,305.1
    c1.8-0.2,3.5-0.7,5.2-1.4c0.1,0,0.2-0.1,0.3-0.1c0.2,0,0.4,0.1,0.5,0.3c0.1,0.2,0,0.4-0.2,0.6c-0.4,0.3-0.8,0.6-1.2,0.8
    c-1.4,0.8-2.8,1.3-4.4,1.5c-0.5,0.1-1,0.1-1.4,0.1c-1.8,0-3.4-0.6-4.9-1.5c-1.1-0.6-2-1.4-2.9-2.2c-0.2-0.2-0.2-0.4-0.1-0.6
    c0.1-0.2,0.4-0.2,0.6-0.1c0.4,0.2,0.8,0.5,1.3,0.7c1.2,0.7,2.5,1.3,3.9,1.6C-401.7,305.1-400.5,305.2-399.4,305.1z"/>
</svg>
